<?xml version="1.0" encoding="UTF-8" standalone="no"?>
<!DOCTYPE svg PUBLIC "-//W3C//DTD SVG 1.1//EN" "http://www.w3.org/Graphics/SVG/1.1/DTD/svg11.dtd">
<!-- 由 Microsoft Visio, SVG Export 生成 TaskGraph-ForkJoin2.svg 页-1 -->
<svg xmlns="http://www.w3.org/2000/svg" xmlns:xlink="http://www.w3.org/1999/xlink" xmlns:ev="http://www.w3.org/2001/xml-events"
		xmlns:v="http://schemas.microsoft.com/visio/2003/SVGExtensions/" width="11.3144in" height="2.60184in"
		viewBox="0 0 814.64 187.333" xml:space="preserve" color-interpolation-filters="sRGB" class="st17">
	<v:documentProperties v:langID="2052" v:viewMarkup="false"/>

	<style type="text/css">
	<![CDATA[
		.st1 {visibility:visible}
		.st2 {fill:#000000;fill-opacity:0.4;filter:url(#filter_2.6666667461395);stroke:#000000;stroke-opacity:0.4}
		.st3 {fill:#c55a11;stroke:#c7c8c8;stroke-width:0.25}
		.st4 {fill:#feffff;font-family:Calibri;font-size:1.00001em;font-weight:bold}
		.st5 {fill:#ed7d31;stroke:#c7c8c8;stroke-width:0.25}
		.st6 {fill:#70ad47;stroke:#c7c8c8;stroke-width:0.25}
		.st7 {fill:#fec000;stroke:#c7c8c8;stroke-width:0.25}
		.st8 {fill:url(#grad0-31);stroke:#4f87bb;stroke-width:0.75}
		.st9 {fill:#4f87bb;font-family:Calibri;font-size:1.00001em;font-weight:bold}
		.st10 {fill:#4f87bb;font-family:Microsoft Sans Serif;font-size:1.00001em;font-weight:bold}
		.st11 {font-family:微软雅黑;font-size:1em}
		.st12 {fill:#4f87bb;font-family:微软雅黑;font-size:1.00001em;font-weight:bold}
		.st13 {fill:none;filter:url(#filter_2.6666667461395);marker-end:url(#mrkr4-55);stroke:#000000;stroke-linecap:round;stroke-linejoin:round;stroke-opacity:0.4}
		.st14 {fill:#000000;fill-opacity:0.4;stroke:#000000;stroke-opacity:0.4;stroke-width:0.53648068669528}
		.st15 {marker-end:url(#mrkr4-61);stroke:#5b9bd5;stroke-linecap:round;stroke-linejoin:round;stroke-width:3.75}
		.st16 {fill:#5b9bd5;fill-opacity:1;stroke:#5b9bd5;stroke-opacity:1;stroke-width:0.53648068669528}
		.st17 {fill:none;fill-rule:evenodd;font-size:12px;overflow:visible;stroke-linecap:square;stroke-miterlimit:3}
	]]>
	</style>

	<defs id="Patterns_And_Gradients">
		<linearGradient id="grad0-31" x1="0" y1="0" x2="1" y2="0" gradientTransform="rotate(60 0.5 0.5)">
			<stop offset="0" stop-color="#e9eff7" stop-opacity="1"/>
			<stop offset="0.24" stop-color="#f4f7fb" stop-opacity="1"/>
			<stop offset="0.54" stop-color="#feffff" stop-opacity="1"/>
		</linearGradient>
	</defs>
	<defs id="Markers">
		<g id="lend4">
			<path d="M 2 1 L 0 0 L 2 -1 L 2 1 " style="stroke:none"/>
		</g>
		<marker id="mrkr4-55" class="st14" v:arrowType="4" v:arrowSize="3" v:setback="3.728" refX="-3.728" orient="auto"
				markerUnits="strokeWidth" overflow="visible">
			<use xlink:href="#lend4" transform="scale(-1.864,-1.864) "/>
		</marker>
		<marker id="mrkr4-61" class="st16" v:arrowType="4" v:arrowSize="3" v:setback="3.728" refX="-3.728" orient="auto"
				markerUnits="strokeWidth" overflow="visible">
			<use xlink:href="#lend4" transform="scale(-1.864,-1.864) "/>
		</marker>
	</defs>
	<defs id="Filters">
		<filter id="filter_2.6666667461395">
			<feGaussianBlur stdDeviation="2.6666667461395"/>
		</filter>
	</defs>
	<g v:mID="0" v:index="1" v:groupContext="foregroundPage">
		<title>页-1</title>
		<v:pageProperties v:drawingScale="0.0393701" v:pageScale="0.0393701" v:drawingUnits="24" v:shadowOffsetX="8.50394"
				v:shadowOffsetY="-8.50394"/>
		<v:layer v:name="连接线" v:index="0"/>
		<g id="shape2-1" v:mID="2" v:groupContext="shape" transform="translate(111.813,-73.1105)">
			<title>矩形.2</title>
			<desc>FTask_LoadFileToJson</desc>
			<v:userDefs>
				<v:ud v:nameU="visVersion" v:val="VT0(15):26"/>
			</v:userDefs>
			<v:textBlock v:margins="rect(4,4,4,4)" v:tabSpace="42.5197"/>
			<v:textRect cx="72.9921" cy="164.656" width="145.99" height="45.3543"/>
			<g id="shadow2-2" v:groupContext="shadow" v:shadowOffsetX="2.12132" v:shadowOffsetY="-2.12132" v:shadowType="1"
					transform="matrix(1,0,0,1,2.12132,2.12132)" class="st1">
				<rect x="0" y="141.978" width="145.984" height="45.3543" class="st2"/>
			</g>
			<rect x="0" y="141.978" width="145.984" height="45.3543" class="st3"/>
			<text x="18.36" y="168.26" class="st4" v:langID="1033"><v:paragraph v:horizAlign="1"/><v:tabList/>FTask_LoadFileToJson</text>		</g>
		<g id="shape3-7" v:mID="3" v:groupContext="shape" transform="translate(310.238,-139.725)">
			<title>矩形.3</title>
			<desc>FTask_StockMax</desc>
			<v:userDefs>
				<v:ud v:nameU="visVersion" v:val="VT0(15):26"/>
			</v:userDefs>
			<v:textBlock v:margins="rect(4,4,4,4)" v:tabSpace="42.5197"/>
			<v:textRect cx="72.9921" cy="164.656" width="145.99" height="45.3543"/>
			<g id="shadow3-8" v:groupContext="shadow" v:shadowOffsetX="2.12132" v:shadowOffsetY="-2.12132" v:shadowType="1"
					transform="matrix(1,0,0,1,2.12132,2.12132)" class="st1">
				<rect x="0" y="141.978" width="145.984" height="45.3543" class="st2"/>
			</g>
			<rect x="0" y="141.978" width="145.984" height="45.3543" class="st5"/>
			<text x="31.55" y="168.26" class="st4" v:langID="1033"><v:paragraph v:horizAlign="1"/><v:tabList/>FTask_StockMax</text>		</g>
		<g id="shape4-13" v:mID="4" v:groupContext="shape" transform="translate(310.238,-73.1105)">
			<title>矩形.4</title>
			<desc>FTask_StockMin</desc>
			<v:userDefs>
				<v:ud v:nameU="visVersion" v:val="VT0(15):26"/>
			</v:userDefs>
			<v:textBlock v:margins="rect(4,4,4,4)" v:tabSpace="42.5197"/>
			<v:textRect cx="72.9921" cy="164.656" width="145.99" height="45.3543"/>
			<g id="shadow4-14" v:groupContext="shadow" v:shadowOffsetX="2.12132" v:shadowOffsetY="-2.12132" v:shadowType="1"
					transform="matrix(1,0,0,1,2.12132,2.12132)" class="st1">
				<rect x="0" y="141.978" width="145.984" height="45.3543" class="st2"/>
			</g>
			<rect x="0" y="141.978" width="145.984" height="45.3543" class="st6"/>
			<text x="32.57" y="168.26" class="st4" v:langID="1033"><v:paragraph v:horizAlign="1"/><v:tabList/>FTask_StockMin</text>		</g>
		<g id="shape5-19" v:mID="5" v:groupContext="shape" transform="translate(310.238,-6.49632)">
			<title>矩形.5</title>
			<desc>FTask_StockAverage</desc>
			<v:userDefs>
				<v:ud v:nameU="visVersion" v:val="VT0(15):26"/>
			</v:userDefs>
			<v:textBlock v:margins="rect(4,4,4,4)" v:tabSpace="42.5197"/>
			<v:textRect cx="72.9921" cy="164.656" width="145.99" height="45.3543"/>
			<g id="shadow5-20" v:groupContext="shadow" v:shadowOffsetX="2.12132" v:shadowOffsetY="-2.12132" v:shadowType="1"
					transform="matrix(1,0,0,1,2.12132,2.12132)" class="st1">
				<rect x="0" y="141.978" width="145.984" height="45.3543" class="st2"/>
			</g>
			<rect x="0" y="141.978" width="145.984" height="45.3543" class="st7"/>
			<text x="22.06" y="168.26" class="st4" v:langID="1033"><v:paragraph v:horizAlign="1"/><v:tabList/>FTask_StockAverage</text>		</g>
		<g id="shape6-25" v:mID="6" v:groupContext="shape" transform="translate(508.663,-73.1105)">
			<title>矩形.6</title>
			<desc>FTaskCompletion_StockAnalyze</desc>
			<v:userDefs>
				<v:ud v:nameU="visVersion" v:val="VT0(15):26"/>
			</v:userDefs>
			<v:textBlock v:margins="rect(4,4,4,4)" v:tabSpace="42.5197"/>
			<v:textRect cx="106.299" cy="164.656" width="212.6" height="45.3543"/>
			<g id="shadow6-26" v:groupContext="shadow" v:shadowOffsetX="2.12132" v:shadowOffsetY="-2.12132" v:shadowType="1"
					transform="matrix(1,0,0,1,2.12132,2.12132)" class="st1">
				<rect x="0" y="141.978" width="212.598" height="45.3543" class="st2"/>
			</g>
			<rect x="0" y="141.978" width="212.598" height="45.3543" class="st8"/>
			<text x="27.28" y="168.26" class="st9" v:langID="1033"><v:paragraph v:horizAlign="1"/><v:tabList/>FTaskCompletion_StockAnalyze</text>		</g>
		<g id="shape8-33" v:mID="8" v:groupContext="shape" transform="translate(735.435,-73.1105)">
			<title>矩形.8</title>
			<desc>UI更新</desc>
			<v:userDefs>
				<v:ud v:nameU="visVersion" v:val="VT0(15):26"/>
			</v:userDefs>
			<v:textBlock v:margins="rect(4,4,4,4)" v:tabSpace="42.5197"/>
			<v:textRect cx="36.3543" cy="164.656" width="72.71" height="45.3543"/>
			<g id="shadow8-34" v:groupContext="shadow" v:shadowOffsetX="2.12132" v:shadowOffsetY="-2.12132" v:shadowType="1"
					transform="matrix(1,0,0,1,2.12132,2.12132)" class="st1">
				<rect x="0" y="141.978" width="72.7087" height="45.3543" class="st2"/>
			</g>
			<rect x="0" y="141.978" width="72.7087" height="45.3543" class="st8"/>
			<text x="18.35" y="168.35" class="st10" v:langID="2052"><v:paragraph v:horizAlign="1"/><v:tabList/>UI<tspan
						class="st11">更新</tspan></text>		</g>
		<g id="shape9-41" v:mID="9" v:groupContext="shape" transform="translate(2.25368,-73.1105)">
			<title>矩形.9</title>
			<desc>发起任务</desc>
			<v:userDefs>
				<v:ud v:nameU="visVersion" v:val="VT0(15):26"/>
			</v:userDefs>
			<v:textBlock v:margins="rect(4,4,4,4)" v:tabSpace="42.5197"/>
			<v:textRect cx="36.3543" cy="164.656" width="72.71" height="45.3543"/>
			<g id="shadow9-42" v:groupContext="shadow" v:shadowOffsetX="2.12132" v:shadowOffsetY="-2.12132" v:shadowType="1"
					transform="matrix(1,0,0,1,2.12132,2.12132)" class="st1">
				<rect x="0" y="141.978" width="72.7087" height="45.3543" class="st2"/>
			</g>
			<rect x="0" y="141.978" width="72.7087" height="45.3543" class="st8"/>
			<text x="12.35" y="168.3" class="st12" v:langID="2052"><v:paragraph v:horizAlign="1"/><v:tabList/>发起任务</text>		</g>
		<g id="shape10-48" v:mID="10" v:groupContext="shape" v:layerMember="0" transform="translate(74.9623,-88.701)">
			<title>动态连接线</title>
			<g id="shadow10-49" v:groupContext="shadow" v:shadowOffsetX="2.12132" v:shadowOffsetY="-2.12132" v:shadowType="1"
					transform="matrix(1,0,0,1,2.12132,2.12132)" class="st1">
				<path d="M0 180.25 L22.87 180.25" class="st13"/>
			</g>
			<path d="M0 180.25 L22.87 180.25" class="st15"/>
		</g>
		<g id="shape13-62" v:mID="13" v:groupContext="shape" v:layerMember="0" transform="translate(257.797,-95.7877)">
			<title>动态连接线.13</title>
			<g id="shadow13-63" v:groupContext="shadow" v:shadowOffsetX="2.12132" v:shadowOffsetY="-2.12132" v:shadowType="1"
					transform="matrix(1,0,0,1,2.12132,2.12132)" class="st1">
				<path d="M0 187.33 L5.31 187.33 A5.31496 5.31496 -180 0 0 10.63 182.02 L10.63 129.22 A8.50394 8.50394 0 0 1 19.13
							 120.72 L38.46 120.72" class="st13"/>
			</g>
			<path d="M0 187.33 L5.31 187.33 A5.31496 5.31496 -180 0 0 10.63 182.02 L10.63 129.22 A8.50394 8.50394 0 0 1 19.13 120.72
						 L38.46 120.72" class="st15"/>
		</g>
		<g id="shape14-74" v:mID="14" v:groupContext="shape" v:layerMember="0" transform="translate(257.797,-88.701)">
			<title>动态连接线.14</title>
			<g id="shadow14-75" v:groupContext="shadow" v:shadowOffsetX="2.12132" v:shadowOffsetY="-2.12132" v:shadowType="1"
					transform="matrix(1,0,0,1,2.12132,2.12132)" class="st1">
				<path d="M0 180.25 L38.46 180.25" class="st13"/>
			</g>
			<path d="M0 180.25 L38.46 180.25" class="st15"/>
		</g>
		<g id="shape15-86" v:mID="15" v:groupContext="shape" v:layerMember="0" transform="translate(257.797,-95.7877)">
			<title>动态连接线.15</title>
			<g id="shadow15-87" v:groupContext="shadow" v:shadowOffsetX="2.12132" v:shadowOffsetY="-2.12132" v:shadowType="1"
					transform="matrix(1,0,0,1,2.12132,2.12132)" class="st1">
				<path d="M0 187.33 L5.31 187.33 A5.31496 5.31496 0 0 1 10.63 192.65 L10.63 245.44 A8.50394 8.50394 -180 0 0 19.13
							 253.95 L38.46 253.95" class="st13"/>
			</g>
			<path d="M0 187.33 L5.31 187.33 A5.31496 5.31496 0 0 1 10.63 192.65 L10.63 245.44 A8.50394 8.50394 -180 0 0 19.13 253.95
						 L38.46 253.95" class="st15"/>
		</g>
		<g id="shape16-98" v:mID="16" v:groupContext="shape" v:layerMember="0" transform="translate(456.222,-88.701)">
			<title>动态连接线.16</title>
			<g id="shadow16-99" v:groupContext="shadow" v:shadowOffsetX="2.12132" v:shadowOffsetY="-2.12132" v:shadowType="1"
					transform="matrix(1,0,0,1,2.12132,2.12132)" class="st1">
				<path d="M0 180.25 L38.46 180.25" class="st13"/>
			</g>
			<path d="M0 180.25 L38.46 180.25" class="st15"/>
		</g>
		<g id="shape17-110" v:mID="17" v:groupContext="shape" v:layerMember="0" transform="translate(721.262,-88.701)">
			<title>动态连接线.17</title>
			<g id="shadow17-111" v:groupContext="shadow" v:shadowOffsetX="2.12132" v:shadowOffsetY="-2.12132" v:shadowType="1"
					transform="matrix(1,0,0,1,2.12132,2.12132)" class="st1">
				<path d="M0 180.25 L0.19 180.25" class="st13"/>
			</g>
			<path d="M0 180.25 L0.19 180.25" class="st15"/>
		</g>
		<g id="shape18-122" v:mID="18" v:groupContext="shape" v:layerMember="0" transform="translate(456.222,-162.402)">
			<title>动态连接线.18</title>
			<g id="shadow18-123" v:groupContext="shadow" v:shadowOffsetX="2.12132" v:shadowOffsetY="-2.12132" v:shadowType="1"
					transform="matrix(1,0,0,1,2.12132,2.12132)" class="st1">
				<path d="M0 187.33 L14.17 187.33 A8.50394 8.50394 0 0 1 22.68 195.84 L22.68 245.44 A8.50394 8.50394 -180 0 0 31.18
							 253.95 L38.46 253.95" class="st13"/>
			</g>
			<path d="M0 187.33 L14.17 187.33 A8.50394 8.50394 0 0 1 22.68 195.84 L22.68 245.44 A8.50394 8.50394 -180 0 0 31.18 253.95
						 L38.46 253.95" class="st15"/>
		</g>
		<g id="shape19-134" v:mID="19" v:groupContext="shape" v:layerMember="0" transform="translate(456.222,-29.1735)">
			<title>动态连接线.19</title>
			<g id="shadow19-135" v:groupContext="shadow" v:shadowOffsetX="2.12132" v:shadowOffsetY="-2.12132" v:shadowType="1"
					transform="matrix(1,0,0,1,2.12132,2.12132)" class="st1">
				<path d="M0 187.33 L12.76 187.33 A8.50394 8.50394 -180 0 0 21.26 178.83 L21.26 129.22 A8.50394 8.50394 0 0 1 29.76
							 120.72 L38.46 120.72" class="st13"/>
			</g>
			<path d="M0 187.33 L12.76 187.33 A8.50394 8.50394 -180 0 0 21.26 178.83 L21.26 129.22 A8.50394 8.50394 0 0 1 29.76 120.72
						 L38.46 120.72" class="st15"/>
		</g>
	</g>
</svg>
