<?xml version="1.0" encoding="UTF-8" standalone="no"?>
<!DOCTYPE svg PUBLIC "-//W3C//DTD SVG 1.1//EN" "http://www.w3.org/Graphics/SVG/1.1/DTD/svg11.dtd">
<!-- 由 Microsoft Visio, SVG Export 生成 taskgraph-forkjoin.svg 页-1 -->
<svg xmlns="http://www.w3.org/2000/svg" xmlns:xlink="http://www.w3.org/1999/xlink" xmlns:ev="http://www.w3.org/2001/xml-events"
		xmlns:v="http://schemas.microsoft.com/visio/2003/SVGExtensions/" width="9.97881in" height="2.60184in"
		viewBox="0 0 718.474 187.333" xml:space="preserve" color-interpolation-filters="sRGB" class="st20">
	<v:documentProperties v:langID="2052" v:viewMarkup="false"/>

	<style type="text/css">
	<![CDATA[
		.st1 {visibility:visible}
		.st2 {fill:#000000;fill-opacity:0.4;filter:url(#filter_2.6666667461395);stroke:#000000;stroke-opacity:0.4}
		.st3 {fill:#c55a11;stroke:#c7c8c8;stroke-width:0.25}
		.st4 {fill:#feffff;font-family:微软雅黑;font-size:1.00001em;font-weight:bold}
		.st5 {font-family:Microsoft Sans Serif;font-size:1em}
		.st6 {font-family:Calibri;font-size:1em}
		.st7 {font-family:Microsoft Sans Serif;font-size:0.749994em}
		.st8 {fill:#ed7d31;stroke:#c7c8c8;stroke-width:0.25}
		.st9 {fill:#70ad47;stroke:#c7c8c8;stroke-width:0.25}
		.st10 {fill:#fec000;stroke:#c7c8c8;stroke-width:0.25}
		.st11 {fill:url(#grad0-37);stroke:#4f87bb;stroke-width:0.75}
		.st12 {fill:#4f87bb;font-family:微软雅黑;font-size:1.00001em;font-weight:bold}
		.st13 {fill:#4f87bb;font-family:Microsoft Sans Serif;font-size:1.00001em;font-weight:bold}
		.st14 {font-family:微软雅黑;font-size:1em}
		.st15 {font-size:0.749994em}
		.st16 {fill:none;filter:url(#filter_2.6666667461395);marker-end:url(#mrkr4-64);stroke:#000000;stroke-linecap:round;stroke-linejoin:round;stroke-opacity:0.4}
		.st17 {fill:#000000;fill-opacity:0.4;stroke:#000000;stroke-opacity:0.4;stroke-width:0.53648068669528}
		.st18 {marker-end:url(#mrkr4-70);stroke:#5b9bd5;stroke-linecap:round;stroke-linejoin:round;stroke-width:3.75}
		.st19 {fill:#5b9bd5;fill-opacity:1;stroke:#5b9bd5;stroke-opacity:1;stroke-width:0.53648068669528}
		.st20 {fill:none;fill-rule:evenodd;font-size:12px;overflow:visible;stroke-linecap:square;stroke-miterlimit:3}
	]]>
	</style>

	<defs id="Patterns_And_Gradients">
		<linearGradient id="grad0-37" x1="0" y1="0" x2="1" y2="0" gradientTransform="rotate(60 0.5 0.5)">
			<stop offset="0" stop-color="#e9eff7" stop-opacity="1"/>
			<stop offset="0.24" stop-color="#f4f7fb" stop-opacity="1"/>
			<stop offset="0.54" stop-color="#feffff" stop-opacity="1"/>
		</linearGradient>
	</defs>
	<defs id="Markers">
		<g id="lend4">
			<path d="M 2 1 L 0 0 L 2 -1 L 2 1 " style="stroke:none"/>
		</g>
		<marker id="mrkr4-64" class="st17" v:arrowType="4" v:arrowSize="3" v:setback="3.728" refX="-3.728" orient="auto"
				markerUnits="strokeWidth" overflow="visible">
			<use xlink:href="#lend4" transform="scale(-1.864,-1.864) "/>
		</marker>
		<marker id="mrkr4-70" class="st19" v:arrowType="4" v:arrowSize="3" v:setback="3.728" refX="-3.728" orient="auto"
				markerUnits="strokeWidth" overflow="visible">
			<use xlink:href="#lend4" transform="scale(-1.864,-1.864) "/>
		</marker>
	</defs>
	<defs id="Filters">
		<filter id="filter_2.6666667461395">
			<feGaussianBlur stdDeviation="2.6666667461395"/>
		</filter>
	</defs>
	<g v:mID="0" v:index="1" v:groupContext="foregroundPage">
		<title>页-1</title>
		<v:pageProperties v:drawingScale="0.0393701" v:pageScale="0.0393701" v:drawingUnits="24" v:shadowOffsetX="8.50394"
				v:shadowOffsetY="-8.50394"/>
		<v:layer v:name="连接线" v:index="0"/>
		<g id="shape2-1" v:mID="2" v:groupContext="shape" transform="translate(144.695,-73.1105)">
			<title>矩形.2</title>
			<desc>加载并解析 Json Any Thread</desc>
			<v:userDefs>
				<v:ud v:nameU="visVersion" v:val="VT0(15):26"/>
			</v:userDefs>
			<v:textBlock v:margins="rect(4,4,4,4)" v:tabSpace="42.5197"/>
			<v:textRect cx="56.6929" cy="164.656" width="113.39" height="45.3543"/>
			<g id="shadow2-2" v:groupContext="shadow" v:shadowOffsetX="2.12132" v:shadowOffsetY="-2.12132" v:shadowType="1"
					transform="matrix(1,0,0,1,2.12132,2.12132)" class="st1">
				<rect x="0" y="141.978" width="113.386" height="45.3543" class="st2"/>
			</g>
			<rect x="0" y="141.978" width="113.386" height="45.3543" class="st3"/>
			<text x="14.27" y="161.15" class="st4" v:langID="2052"><v:paragraph v:horizAlign="1"/><v:tabList/>加载并解析<tspan
						class="st5"> </tspan><tspan class="st6" v:langID="1033">Json<v:newlineChar/></tspan><tspan x="33.46"
						dy="1.61em" class="st7">Any Thread</tspan></text>		</g>
		<g id="shape3-10" v:mID="3" v:groupContext="shape" transform="translate(301.663,-139.725)">
			<title>矩形.3</title>
			<desc>计算最大值 Any Thread</desc>
			<v:userDefs>
				<v:ud v:nameU="visVersion" v:val="VT0(15):26"/>
			</v:userDefs>
			<v:textBlock v:margins="rect(4,4,4,4)" v:tabSpace="42.5197"/>
			<v:textRect cx="56.6929" cy="164.656" width="113.39" height="45.3543"/>
			<g id="shadow3-11" v:groupContext="shadow" v:shadowOffsetX="2.12132" v:shadowOffsetY="-2.12132" v:shadowType="1"
					transform="matrix(1,0,0,1,2.12132,2.12132)" class="st1">
				<rect x="0" y="141.978" width="113.386" height="45.3543" class="st2"/>
			</g>
			<rect x="0" y="141.978" width="113.386" height="45.3543" class="st8"/>
			<text x="26.69" y="161.1" class="st4" v:langID="2052"><v:paragraph v:horizAlign="1"/><v:tabList/>计算最大值<v:newlineChar/><tspan
						x="33.46" dy="1.605em" class="st7">Any Thread</tspan></text>		</g>
		<g id="shape4-17" v:mID="4" v:groupContext="shape" transform="translate(301.663,-73.1105)">
			<title>矩形.4</title>
			<desc>计算最小值 Any Thread</desc>
			<v:userDefs>
				<v:ud v:nameU="visVersion" v:val="VT0(15):26"/>
			</v:userDefs>
			<v:textBlock v:margins="rect(4,4,4,4)" v:tabSpace="42.5197"/>
			<v:textRect cx="56.6929" cy="164.656" width="113.39" height="45.3543"/>
			<g id="shadow4-18" v:groupContext="shadow" v:shadowOffsetX="2.12132" v:shadowOffsetY="-2.12132" v:shadowType="1"
					transform="matrix(1,0,0,1,2.12132,2.12132)" class="st1">
				<rect x="0" y="141.978" width="113.386" height="45.3543" class="st2"/>
			</g>
			<rect x="0" y="141.978" width="113.386" height="45.3543" class="st9"/>
			<text x="26.69" y="161.1" class="st4" v:langID="2052"><v:paragraph v:horizAlign="1"/><v:tabList/>计算最小值<v:newlineChar/><tspan
						x="33.46" dy="1.605em" class="st7">Any Thread</tspan></text>		</g>
		<g id="shape5-24" v:mID="5" v:groupContext="shape" transform="translate(301.663,-6.49632)">
			<title>矩形.5</title>
			<desc>计算平均值 Any Thread</desc>
			<v:userDefs>
				<v:ud v:nameU="visVersion" v:val="VT0(15):26"/>
			</v:userDefs>
			<v:textBlock v:margins="rect(4,4,4,4)" v:tabSpace="42.5197"/>
			<v:textRect cx="56.6929" cy="164.656" width="113.39" height="45.3543"/>
			<g id="shadow5-25" v:groupContext="shadow" v:shadowOffsetX="2.12132" v:shadowOffsetY="-2.12132" v:shadowType="1"
					transform="matrix(1,0,0,1,2.12132,2.12132)" class="st1">
				<rect x="0" y="141.978" width="113.386" height="45.3543" class="st2"/>
			</g>
			<rect x="0" y="141.978" width="113.386" height="45.3543" class="st10"/>
			<text x="26.69" y="161.1" class="st4" v:langID="2052"><v:paragraph v:horizAlign="1"/><v:tabList/>计算平均值<v:newlineChar/><tspan
						x="33.46" dy="1.605em" class="st7">Any Thread</tspan></text>		</g>
		<g id="shape6-31" v:mID="6" v:groupContext="shape" transform="translate(456.151,-73.1105)">
			<title>矩形.6</title>
			<desc>完成通知 Game Thread</desc>
			<v:userDefs>
				<v:ud v:nameU="visVersion" v:val="VT0(15):26"/>
			</v:userDefs>
			<v:textBlock v:margins="rect(4,4,4,4)" v:tabSpace="42.5197"/>
			<v:textRect cx="56.6929" cy="164.656" width="113.39" height="45.3543"/>
			<g id="shadow6-32" v:groupContext="shadow" v:shadowOffsetX="2.12132" v:shadowOffsetY="-2.12132" v:shadowType="1"
					transform="matrix(1,0,0,1,2.12132,2.12132)" class="st1">
				<rect x="0" y="141.978" width="113.386" height="45.3543" class="st2"/>
			</g>
			<rect x="0" y="141.978" width="113.386" height="45.3543" class="st11"/>
			<text x="32.69" y="161.1" class="st12" v:langID="2052"><v:paragraph v:horizAlign="1"/><v:tabList/>完成通知<v:newlineChar/><tspan
						x="28.96" dy="1.605em" class="st7">Game Thread</tspan></text>		</g>
		<g id="shape8-40" v:mID="8" v:groupContext="shape" transform="translate(598.592,-73.1105)">
			<title>矩形.8</title>
			<desc>UI更新 Game Thread</desc>
			<v:userDefs>
				<v:ud v:nameU="visVersion" v:val="VT0(15):26"/>
			</v:userDefs>
			<v:textBlock v:margins="rect(4,4,4,4)" v:tabSpace="42.5197"/>
			<v:textRect cx="56.6929" cy="164.656" width="113.39" height="45.3543"/>
			<g id="shadow8-41" v:groupContext="shadow" v:shadowOffsetX="2.12132" v:shadowOffsetY="-2.12132" v:shadowType="1"
					transform="matrix(1,0,0,1,2.12132,2.12132)" class="st1">
				<rect x="0" y="141.978" width="113.386" height="45.3543" class="st2"/>
			</g>
			<rect x="0" y="141.978" width="113.386" height="45.3543" class="st11"/>
			<text x="38.69" y="161.1" class="st13" v:langID="2052"><v:paragraph v:horizAlign="1"/><v:tabList/>UI<tspan class="st14">更新<v:newlineChar/></tspan><tspan
						x="28.96" dy="1.605em" class="st15">Game Thread</tspan></text>		</g>
		<g id="shape9-49" v:mID="9" v:groupContext="shape" transform="translate(2.25368,-73.1105)">
			<title>矩形.9</title>
			<desc>发起任务 Game Thread</desc>
			<v:userDefs>
				<v:ud v:nameU="visVersion" v:val="VT0(15):26"/>
			</v:userDefs>
			<v:textBlock v:margins="rect(4,4,4,4)" v:tabSpace="42.5197"/>
			<v:textRect cx="56.6929" cy="164.656" width="113.39" height="45.3543"/>
			<g id="shadow9-50" v:groupContext="shadow" v:shadowOffsetX="2.12132" v:shadowOffsetY="-2.12132" v:shadowType="1"
					transform="matrix(1,0,0,1,2.12132,2.12132)" class="st1">
				<rect x="0" y="141.978" width="113.386" height="45.3543" class="st2"/>
			</g>
			<rect x="0" y="141.978" width="113.386" height="45.3543" class="st11"/>
			<text x="32.69" y="161.1" class="st12" v:langID="2052"><v:paragraph v:horizAlign="1"/><v:tabList/>发起任务<v:newlineChar/><tspan
						x="28.96" dy="1.605em" class="st7">Game Thread</tspan></text>		</g>
		<g id="shape10-57" v:mID="10" v:groupContext="shape" v:layerMember="0" transform="translate(115.64,-88.701)">
			<title>动态连接线</title>
			<g id="shadow10-58" v:groupContext="shadow" v:shadowOffsetX="2.12132" v:shadowOffsetY="-2.12132" v:shadowType="1"
					transform="matrix(1,0,0,1,2.12132,2.12132)" class="st1">
				<path d="M0 180.25 L15.08 180.25" class="st16"/>
			</g>
			<path d="M0 180.25 L15.08 180.25" class="st18"/>
		</g>
		<g id="shape13-71" v:mID="13" v:groupContext="shape" v:layerMember="0" transform="translate(258.08,-95.7877)">
			<title>动态连接线.13</title>
			<g id="shadow13-72" v:groupContext="shadow" v:shadowOffsetX="2.12132" v:shadowOffsetY="-2.12132" v:shadowType="1"
					transform="matrix(1,0,0,1,2.12132,2.12132)" class="st1">
				<path d="M0 187.33 L5.31 187.33 A5.31496 5.31496 -180 0 0 10.63 182.02 L10.63 129.22 A8.50394 8.50394 0 0 1 19.13
							 120.72 L29.6 120.72" class="st16"/>
			</g>
			<path d="M0 187.33 L5.31 187.33 A5.31496 5.31496 -180 0 0 10.63 182.02 L10.63 129.22 A8.50394 8.50394 0 0 1 19.13 120.72
						 L29.6 120.72" class="st18"/>
		</g>
		<g id="shape14-83" v:mID="14" v:groupContext="shape" v:layerMember="0" transform="translate(258.08,-88.701)">
			<title>动态连接线.14</title>
			<g id="shadow14-84" v:groupContext="shadow" v:shadowOffsetX="2.12132" v:shadowOffsetY="-2.12132" v:shadowType="1"
					transform="matrix(1,0,0,1,2.12132,2.12132)" class="st1">
				<path d="M0 180.25 L29.6 180.25" class="st16"/>
			</g>
			<path d="M0 180.25 L29.6 180.25" class="st18"/>
		</g>
		<g id="shape15-95" v:mID="15" v:groupContext="shape" v:layerMember="0" transform="translate(258.08,-95.7877)">
			<title>动态连接线.15</title>
			<g id="shadow15-96" v:groupContext="shadow" v:shadowOffsetX="2.12132" v:shadowOffsetY="-2.12132" v:shadowType="1"
					transform="matrix(1,0,0,1,2.12132,2.12132)" class="st1">
				<path d="M0 187.33 L5.31 187.33 A5.31496 5.31496 0 0 1 10.63 192.65 L10.63 245.44 A8.50394 8.50394 -180 0 0 19.13
							 253.95 L29.6 253.95" class="st16"/>
			</g>
			<path d="M0 187.33 L5.31 187.33 A5.31496 5.31496 0 0 1 10.63 192.65 L10.63 245.44 A8.50394 8.50394 -180 0 0 19.13 253.95
						 L29.6 253.95" class="st18"/>
		</g>
		<g id="shape16-107" v:mID="16" v:groupContext="shape" v:layerMember="0" transform="translate(415.049,-88.701)">
			<title>动态连接线.16</title>
			<g id="shadow16-108" v:groupContext="shadow" v:shadowOffsetX="2.12132" v:shadowOffsetY="-2.12132" v:shadowType="1"
					transform="matrix(1,0,0,1,2.12132,2.12132)" class="st1">
				<path d="M0 180.25 L27.12 180.25" class="st16"/>
			</g>
			<path d="M0 180.25 L27.12 180.25" class="st18"/>
		</g>
		<g id="shape17-119" v:mID="17" v:groupContext="shape" v:layerMember="0" transform="translate(569.537,-88.701)">
			<title>动态连接线.17</title>
			<g id="shadow17-120" v:groupContext="shadow" v:shadowOffsetX="2.12132" v:shadowOffsetY="-2.12132" v:shadowType="1"
					transform="matrix(1,0,0,1,2.12132,2.12132)" class="st1">
				<path d="M0 180.25 L15.08 180.25" class="st16"/>
			</g>
			<path d="M0 180.25 L15.08 180.25" class="st18"/>
		</g>
		<g id="shape18-131" v:mID="18" v:groupContext="shape" v:layerMember="0" transform="translate(415.049,-162.402)">
			<title>动态连接线.18</title>
			<g id="shadow18-132" v:groupContext="shadow" v:shadowOffsetX="2.12132" v:shadowOffsetY="-2.12132" v:shadowType="1"
					transform="matrix(1,0,0,1,2.12132,2.12132)" class="st1">
				<path d="M0 187.33 L5.31 187.33 A5.31496 5.31496 0 0 1 10.63 192.65 L10.63 245.44 A8.50394 8.50394 -180 0 0 19.13
							 253.95 L27.12 253.95" class="st16"/>
			</g>
			<path d="M0 187.33 L5.31 187.33 A5.31496 5.31496 0 0 1 10.63 192.65 L10.63 245.44 A8.50394 8.50394 -180 0 0 19.13 253.95
						 L27.12 253.95" class="st18"/>
		</g>
		<g id="shape19-143" v:mID="19" v:groupContext="shape" v:layerMember="0" transform="translate(415.049,-29.1735)">
			<title>动态连接线.19</title>
			<g id="shadow19-144" v:groupContext="shadow" v:shadowOffsetX="2.12132" v:shadowOffsetY="-2.12132" v:shadowType="1"
					transform="matrix(1,0,0,1,2.12132,2.12132)" class="st1">
				<path d="M0 187.33 L5.31 187.33 A5.31496 5.31496 -180 0 0 10.63 182.02 L10.63 129.22 A8.50394 8.50394 0 0 1 19.13
							 120.72 L27.12 120.72" class="st16"/>
			</g>
			<path d="M0 187.33 L5.31 187.33 A5.31496 5.31496 -180 0 0 10.63 182.02 L10.63 129.22 A8.50394 8.50394 0 0 1 19.13 120.72
						 L27.12 120.72" class="st18"/>
		</g>
	</g>
</svg>
