<?xml version="1.0" standalone="no"?><!DOCTYPE svg PUBLIC "-//W3C//DTD SVG 1.1//EN" "http://www.w3.org/Graphics/SVG/1.1/DTD/svg11.dtd"><svg t="1554037093976" class="icon" style="" viewBox="0 0 2264 1024" version="1.1" xmlns="http://www.w3.org/2000/svg" p-id="2772" xmlns:xlink="http://www.w3.org/1999/xlink" width="283" height="128"><defs><style type="text/css"></style></defs><path d="M0 933.048447a1128.944099 87.135404 0 1 0 2257.888199 0 1128.944099 87.135404 0 1 0-2257.888199 0Z" fill="#D4D5D9" p-id="2773"></path><path d="M776.414609 181.903106v24.804969h-102.4v-24.804969-1.27205c0.636025-14.628571 12.720497-26.713043 27.985093-26.713044h47.065838c8.268323 0 16.536646 3.816149 21.624845 10.176398 3.180124 5.088199 5.724224 11.448447 5.724224 17.808696" fill="#26304D" p-id="2774"></path><path d="M693.731379 887.254658h62.330435V203.52795h-62.330435zM628.856845 938.772671h192.715528v-51.518013h-192.715528z" fill="#334066" p-id="2775"></path><path d="M821.572373 887.254658v51.518013h-97.311802c-2.544099-17.808696-18.44472-31.165217-36.889441-31.165218h-59.15031v-20.352795h193.351553zM776.414609 181.903106v24.804969h-19.71677v680.546583h-31.801243c0-11.448447-3.816149-21.624845-9.540372-29.893167-5.088199-7.632298-12.084472-13.992547-20.352795-18.444721-0.636025 0-0.636025-0.636025-1.27205-0.636025v-57.878261h31.165217V588.322981c0-12.084472-3.816149-22.896894-10.176397-32.437267-5.088199-8.268323-12.720497-14.628571-21.624845-19.080745v-57.242236h31.801242V236.601242c0-10.812422-3.180124-20.98882-8.268323-29.257143-0.636025-1.27205-1.27205-2.544099-2.544099-3.180124-1.908075-2.544099-3.816149-4.452174-5.724224-6.360248-5.088199-5.088199-10.812422-8.904348-17.808695-12.084472-5.088199-1.908075-10.812422-3.816149-17.172671-3.816149 0.636025-14.628571 12.720497-26.713043 27.985093-26.713044h47.065839c8.268323 0 16.536646 3.816149 21.624844 10.176398 3.816149 3.816149 6.360248 10.176398 6.360249 16.536646" fill="#26304D" p-id="2776"></path><path d="M805.035727 78.867081c0 43.249689-35.617391 78.867081-79.503106 78.86708s-79.503106-35.617391-79.503105-78.86708 35.617391-78.867081 79.503105-78.867081 79.503106 35.617391 79.503106 78.867081" fill="#FF4C4C" p-id="2777"></path><path d="M763.058087 137.381366c-1.27205 0-1.908075-0.636025-2.544099-1.272049-1.27205-1.27205-0.636025-3.180124 0.636024-4.452174 8.268323-5.724224 15.264596-13.356522 20.352795-21.624845 0.636025-1.27205 2.544099-1.908075 4.452174-1.27205 1.27205 0.636025 1.908075 2.544099 1.27205 4.452174-5.088199 9.540373-13.356522 17.808696-22.26087 24.168944h-1.908074zM728.07672 148.829814c-1.908075 0-3.180124-1.27205-3.180124-3.180125s1.27205-3.180124 3.180124-3.180124c4.452174 0 9.540373-0.636025 13.992547-1.908074 1.908075-0.636025 3.180124 0.636025 3.816149 2.544099s-0.636025 3.180124-1.908074 3.816149c-5.088199 1.27205-10.176398 1.908075-15.900622 1.908075zM670.834484 43.249689c-0.636025 0-1.27205 0-1.908074-0.636024-1.27205-1.27205-1.908075-3.180124-0.636025-4.452174 1.908075-2.544099 4.452174-5.724224 6.360249-7.632298 1.27205-1.27205 3.180124-1.27205 4.452173 0 1.27205 1.27205 1.27205 3.180124 0 4.452173-1.908075 2.544099-4.452174 4.452174-5.724223 6.996274-0.636025 1.27205-1.908075 1.27205-2.5441 1.272049zM689.279205 25.440994c-1.27205 0-1.908075-0.636025-2.544099-1.27205-0.636025-1.27205-0.636025-3.180124 1.272049-4.452174 21.624845-13.992547 50.245963-14.628571 72.506833-1.908074 1.27205 0.636025 1.908075 2.544099 1.272049 4.452174-0.636025 1.27205-2.544099 1.908075-4.452174 1.272049-20.352795-11.448447-46.429814-10.812422-66.146583 1.27205-0.636025 0.636025-1.27205 0.636025-1.908075 0.636025z" fill="#FFDB04" p-id="2778"></path><path d="M779.594733 78.867081c0 29.257143-24.168944 53.426087-54.062112 53.426087s-54.062112-24.168944-54.062112-53.426087 24.168944-53.426087 54.062112-53.426087 54.062112 24.168944 54.062112 53.426087" fill="#FFC10D" p-id="2779"></path><path d="M761.150012 78.867081c0 19.71677-15.900621 34.981366-35.617391 34.981366-19.71677 0-35.617391-15.900621-35.617391-34.981366s15.900621-34.981366 35.617391-34.981367c19.71677 0 35.617391 15.264596 35.617391 34.981367" fill="#FFC10D" p-id="2780"></path><path d="M705.179826 636.024845c-1.908075 0-3.180124-1.27205-3.180124-3.180125v-48.337888c0-1.908075 1.27205-3.180124 3.180124-3.180124s3.180124 1.27205 3.180124 3.180124v48.337888c0 1.27205-1.27205 3.180124-3.180124 3.180125zM705.179826 882.16646c-1.908075 0-3.180124-1.27205-3.180124-3.180125v-18.44472c0-1.908075 1.27205-3.180124 3.180124-3.180124s3.180124 1.27205 3.180124 3.180124v18.44472c0 1.908075-1.27205 3.180124-3.180124 3.180125z" fill="#FFFFFF" p-id="2781"></path><path d="M1554.272994 181.903106v24.804969h-102.4v-24.804969-1.27205c0.636025-14.628571 12.720497-26.713043 27.985093-26.713044h47.065838c8.268323 0 16.536646 3.816149 21.624845 10.176398 3.180124 5.088199 5.724224 11.448447 5.724224 17.808696" fill="#26304D" p-id="2782"></path><path d="M1471.589764 887.254658h62.96646V203.52795h-62.96646zM1406.71523 938.772671h192.715528v-51.518013h-192.715528z" fill="#334066" p-id="2783"></path><path d="M1599.430758 887.254658v51.518013h-96.675777c-2.544099-17.808696-18.44472-31.165217-36.889441-31.165218h-59.15031v-20.352795h192.715528zM1554.272994 181.903106v24.804969h-19.71677v680.546583h-31.165218c0-11.448447-3.816149-21.624845-9.540372-29.893167-5.088199-7.632298-12.084472-13.992547-20.352795-18.444721-0.636025 0-0.636025-0.636025-1.27205-0.636025v-57.878261h31.165217V588.322981c0-12.084472-3.816149-22.896894-10.176397-32.437267-5.088199-8.268323-12.720497-14.628571-21.624845-19.080745v-57.242236h31.165217V236.601242c0-10.812422-3.180124-20.98882-8.268323-29.257143-0.636025-1.27205-1.27205-2.544099-2.544099-3.180124-1.908075-2.544099-3.816149-4.452174-5.724224-6.360248-5.088199-5.088199-10.812422-8.904348-17.808695-12.084472-5.088199-1.908075-10.812422-3.816149-17.172671-3.816149 0.636025-14.628571 12.720497-26.713043 27.985093-26.713044h47.065839c8.268323 0 16.536646 3.816149 21.624844 10.176398 3.816149 3.816149 6.360248 10.176398 6.360249 16.536646" fill="#26304D" p-id="2784"></path><path d="M1582.894112 78.867081c0 43.249689-35.617391 78.867081-79.503106 78.86708s-79.503106-35.617391-79.503105-78.86708 35.617391-78.867081 79.503105-78.867081 79.503106 35.617391 79.503106 78.867081" fill="#FF4C4C" p-id="2785"></path><path d="M1541.552497 137.381366c-1.27205 0-1.908075-0.636025-2.544099-1.272049-1.27205-1.27205-0.636025-3.180124 0.636024-4.452174 8.268323-5.724224 15.264596-13.356522 20.352795-21.624845 0.636025-1.27205 2.544099-1.908075 4.452174-1.27205 1.27205 0.636025 1.908075 2.544099 1.27205 4.452174-5.088199 9.540373-12.720497 17.808696-22.26087 24.168944h-1.908074zM1505.935106 148.829814c-1.908075 0-3.180124-1.27205-3.180125-3.180125s1.27205-3.180124 3.180125-3.180124c4.452174 0 9.540373-0.636025 13.992546-1.908074 1.908075-0.636025 3.180124 0.636025 3.816149 2.544099 0.636025 1.908075-0.636025 3.180124-2.544099 3.816149-4.452174 1.27205-9.540373 1.908075-15.264596 1.908075 0.636025 0 0 0 0 0zM1448.69287 43.249689c-0.636025 0-1.27205 0-1.908075-0.636024-1.27205-1.27205-1.908075-3.180124-0.636025-4.452174 1.908075-2.544099 4.452174-5.724224 6.360249-7.632298 1.27205-1.27205 3.180124-1.27205 4.452174 0 1.27205 1.27205 1.27205 3.180124 0 4.452173-1.908075 1.908075-3.816149 4.452174-5.724224 6.996274-0.636025 1.27205-1.908075 1.27205-2.544099 1.272049zM1467.773615 25.440994c-1.27205 0-1.908075-0.636025-2.544099-1.27205-0.636025-1.27205-0.636025-3.180124 1.272049-4.452174 21.624845-13.992547 50.245963-14.628571 72.506833-1.908074 1.27205 0.636025 1.908075 2.544099 1.272049 4.452174-0.636025 1.27205-2.544099 1.908075-4.452174 1.272049-20.352795-11.448447-46.429814-10.812422-66.146584 1.908075h-1.908074z" fill="#FFDB04" p-id="2786"></path><path d="M1557.453118 78.867081c0 29.257143-24.168944 53.426087-54.062112 53.426087s-54.062112-24.168944-54.062112-53.426087 24.168944-53.426087 54.062112-53.426087 54.062112 24.168944 54.062112 53.426087" fill="#FFC10D" p-id="2787"></path><path d="M1539.008398 78.867081c0 19.71677-15.900621 34.981366-35.617392 34.981366-19.71677 0-35.617391-15.900621-35.617391-34.981366s15.900621-34.981366 35.617391-34.981367c19.71677 0 35.617391 15.264596 35.617392 34.981367" fill="#FFC10D" p-id="2788"></path><path d="M1483.674236 636.024845c-1.908075 0-3.180124-1.27205-3.180124-3.180125v-48.337888c0-1.908075 1.27205-3.180124 3.180124-3.180124s3.180124 1.27205 3.180124 3.180124v48.337888c0 1.27205-1.908075 3.180124-3.180124 3.180125zM1483.674236 882.16646c-1.908075 0-3.180124-1.27205-3.180124-3.180125v-18.44472c0-1.908075 1.27205-3.180124 3.180124-3.180124s3.180124 1.27205 3.180124 3.180124v18.44472c0 1.908075-1.908075 3.180124-3.180124 3.180125z" fill="#FFFFFF" p-id="2789"></path><path d="M590.059329 807.751553h1048.168944v-150.737888h-1048.168944z" fill="#FFFCF3" p-id="2790"></path><path d="M1638.228273 657.013665V807.751553h-305.291925c-62.330435-66.146584-150.101863-107.488199-248.685714-107.488199h-494.191305v-43.885714h1048.168944z" fill="#E6E3DA" p-id="2791"></path><path d="M705.815851 657.013665l-115.756522 115.120496v-62.330434l53.426087-53.426087h62.330435z m121.480745 0l-152.009938 150.737888h-62.330434l152.009937-150.737888h62.330435z m121.480746 0l-152.009938 150.737888h-62.330435l152.645963-150.737888h61.69441z m121.480745 0l-151.373913 150.737888h-62.330435l152.009938-150.737888h61.69441z m122.11677 0l-152.009938 150.737888h-62.330435l152.009938-150.737888h62.330435z m121.480745 0l-152.009937 150.737888h-62.330435l152.009938-151.373913h62.330434z m121.480746 0l-152.009938 150.737888h-62.330435l152.009938-151.373913h62.330435z m121.480745 0l-151.373913 150.737888h-62.330435l152.009938-151.373913h61.69441z m81.41118 0v40.70559l-111.304348 110.032298h-62.330434l152.009938-151.373913h21.624844z m0 99.219875v51.518013h-51.518012l51.518012-51.518013z" fill="#FF4C4C" p-id="2792"></path><path d="M661.294112 700.899379h-61.69441l43.885714-43.885714h62.330435l-44.521739 43.885714z m122.11677 0h-62.330435l43.885714-43.885714h62.330435l-43.885714 43.885714z m121.480745 0h-62.330434l43.885714-43.885714h62.330435l-43.885715 43.885714z m121.480746 0h-62.330435l43.885714-43.885714h62.330435l-43.885714 43.885714z m116.392546 5.088199c-18.44472-3.180124-37.525466-5.088199-57.242236-5.088199l43.885715-43.885714h62.330434l-48.973913 48.973913z m92.223603 29.257142c-13.992547-6.996273-28.621118-12.720497-43.885715-17.808695l61.058386-61.058385h62.330434l-79.503105 78.86708z m72.506832 48.973914c-11.448447-9.540373-22.896894-18.44472-34.981366-26.713044l101.12795-100.491925h62.330435l-128.477019 127.204969z m97.947826 23.532919h-62.330435l152.009938-151.373913h62.330435l-152.009938 151.373913z m232.785093-110.668323l-111.304348 110.668323h-62.330434l152.009938-151.373913h21.624844v40.70559z m0 59.15031v51.518013h-51.518012l51.518012-51.518013z" fill="#E64545" p-id="2793"></path><path d="M757.333863 726.340373l-61.058385 60.42236h-37.525466c-6.996273 0-13.356522-2.544099-18.44472-6.360249l54.698137-54.698136h62.330434z m121.480746 0l-61.058385 60.42236h-62.330435l61.058385-60.42236h62.330435z m122.11677 0l-61.058385 60.42236h-62.330435l61.058385-60.42236h62.330435z m-1.27205 60.42236l50.881988-50.245963c5.088199 5.088199 7.632298 12.720497 7.632298 20.352795 0 16.536646-13.356522 30.529193-30.529193 30.529193h-27.985093z" fill="#FF6666" p-id="2794"></path><path d="M590.059329 505.639752h1048.168944V203.52795h-1048.168944z" fill="#FFFCF3" p-id="2795"></path><path d="M590.059329 294.479503V203.52795h1048.168944v302.111802h-205.436025c-10.176398-24.168944-22.896894-47.065839-37.525465-68.690684l-68.690684 68.690684h-269.674534l176.814907-176.178882c-45.157764-22.26087-96.039752-34.345342-150.101863-34.345342h-493.55528z" fill="#E6E3DA" p-id="2796"></path><path d="M1417.527652 368.89441c-1.27205 5.088199-3.816149 10.176398-7.632298 13.992547l-123.38882 122.752795h-171.726708V203.52795h153.918013l141.197515 140.561491c6.360248 6.996273 8.904348 15.900621 7.632298 24.804969" fill="#CCC9C2" p-id="2797"></path><path d="M773.234484 203.52795l-183.175155 182.539131V288.75528l85.863354-85.22733h97.311801z m195.259628 0l-303.383851 302.111802h-75.050932V483.378882l281.122982-279.850932h97.311801z m195.259627 0l-303.383851 302.111802h-97.311801l303.383851-302.111802h97.311801z m195.895652 0l-304.019875 302.111802h-97.947827l304.019876-302.111802h97.947826z m195.259628 0l-303.383851 302.111802h-97.947826l303.383851-302.111802h97.947826z m83.319254 14.628572v97.311801l-191.443478 190.807453h-97.947826l289.391304-288.119254z m0 204.163975v83.319255h-83.955279l83.955279-83.319255z" fill="#FF4C4C" p-id="2798"></path><path d="M681.646907 294.479503h-91.587578v-5.724223l85.863354-85.22733h97.947826l-92.223602 90.951553z m195.259627 0h-97.311801l91.587578-90.951553h97.947826l-92.223603 90.951553z m195.259627 0h-97.947826l92.223603-90.951553h97.311801l-91.587578 90.951553z m160.914286 34.345342c-22.896894-10.812422-47.065839-19.71677-71.870807-25.440994l100.491925-99.855901h97.947826l-126.568944 125.296895z m17.808696 176.814907h-97.947826l304.019876-302.111802h97.947826l-304.019876 302.111802z m387.33913-270.946584v80.13913l-191.443478 190.807454h-13.992547c-7.632298-19.080745-17.172671-37.525466-28.621118-54.698137l234.057143-232.785093v16.536646z m0 187.627329v83.319255h-83.955279l83.955279-83.319255z" fill="#E64545" p-id="2799"></path><path d="M775.142559 396.243478l-61.058385 60.422361h-55.334162c-11.448447 0-21.624845-6.360248-26.713043-15.900622l45.157764-45.157764h97.947826z m195.259627 0l-61.058385 60.422361h-97.311801l61.058385-60.422361h97.311801z m192.079503 3.180124l-57.242236 57.242237h-97.947826l61.058385-60.422361h80.139131c5.088199 0 9.540373 1.27205 13.992546 3.180124z" fill="#FF6666" p-id="2800"></path><path d="M1114.143801 253.137888V203.52795h50.245963l-50.245963 49.609938z m199.711801-4.452174l-199.711801 199.075777V350.449689l147.557764-146.921739h6.360249l45.793788 45.157764z m97.947827 97.311802l-160.278261 159.642236h-97.947826l209.252174-207.980125 47.065838 46.429814 1.908075 1.908075z" fill="#CC3D3D" p-id="2801"></path><path d="M1388.270509 355.537888c0 5.088199-1.908075 10.812422-5.724223 14.628572l-269.674534 267.766459c-8.268323 8.268323-20.98882 8.268323-29.257143 0l-269.674534-267.766459c-8.268323-8.268323-8.268323-20.98882 0-28.621118l206.708074-205.436025 62.96646-62.330435c8.268323-8.268323 20.98882-8.268323 29.257143 0l269.674534 267.76646c3.816149 3.816149 5.724224 8.904348 5.724223 13.992546" fill="#FFC10D" p-id="2802"></path><path d="M1386.99846 354.901863c0 5.088199-1.908075 10.812422-5.724224 14.628572l-269.674534 267.766459c-8.268323 8.268323-20.98882 8.268323-29.257143 0l-51.518012-50.881987 111.940372-111.304348c60.42236-59.786335 60.42236-157.098137 0-216.884472l-123.38882-122.752795 62.96646-62.330435c8.268323-8.268323 20.98882-8.268323 29.257143 0l269.674534 267.76646c3.816149 3.816149 5.724224 8.904348 5.724224 13.992546" fill="#F0C700" p-id="2803"></path><path d="M867.366161 363.806211c-4.452174 0-7.632298-3.180124-7.632298-7.632298s3.816149-7.632298 7.632298-7.632298c4.452174 0 7.632298 3.180124 7.632299 7.632298 0.636025 3.816149-3.180124 7.632298-7.632299 7.632298M1325.940075 347.90559c4.452174 0 7.632298 3.180124 7.632298 7.632298s-3.816149 7.632298-7.632298 7.632298-7.632298-3.180124-7.632299-7.632298c0-3.816149 3.180124-7.632298 7.632299-7.632298" fill="#26304D" p-id="2804"></path><path d="M1096.335106 99.855901c-3.816149 0-7.632298 1.27205-10.812423 4.452174l-241.689441 240.417391c-5.724224 5.724224-5.724224 15.264596 0 20.98882l241.689441 240.417391c5.724224 5.724224 15.264596 5.724224 20.98882 0l241.689441-240.417391c2.544099-2.544099 4.452174-6.360248 4.452174-10.812423 0-3.816149-1.27205-7.632298-4.452174-10.812422l-241.689441-240.417391c-1.908075-2.544099-5.724224-3.816149-10.176397-3.816149m0 517.088198c-5.724224 0-11.448447-2.544099-15.264597-6.360248l-241.689441-240.417391c-8.268323-8.268323-8.268323-22.26087 0-30.529193l241.689441-240.417391c8.268323-8.268323 22.896894-8.268323 31.165218 0l241.689441 240.417391c4.452174 3.816149 6.360248 9.540373 6.360248 15.264596 0 5.724224-2.544099 11.448447-6.360248 15.264597l-241.689441 240.417391c-4.452174 3.816149-9.540373 6.360248-15.900621 6.360248" fill="#FFFFFF" p-id="2805"></path><path d="M1980.975702 887.254658h-249.957764l19.080745-71.870807 15.264597-60.42236 13.356521-50.881988 15.900621-61.058385 38.161491-147.557764h45.793789l38.797515 147.557764 15.900622 61.058385 12.720496 50.881988 15.900622 60.42236z" fill="#FF4C4C" p-id="2806"></path><path d="M1839.142161 727.612422c-12.720497 63.602484-32.437267 113.212422-43.885714 111.304348-12.084472-2.544099-12.084472-55.970186 0.636025-119.572671s32.437267-113.212422 43.885714-111.304347c12.084472 2.544099 11.448447 55.970186-0.636025 119.57267" fill="#FF6666" p-id="2807"></path><path d="M1863.311106 887.254658c53.426087-239.781366-30.529193-391.791304-30.529193-391.791304h45.793789l38.161491 147.557764 15.900621 61.058385 13.356521 50.881988 15.900622 61.058385 18.44472 71.870807h-117.028571z" fill="#E64545" p-id="2808"></path><path d="M1933.273839 704.079503h-154.554038l15.900621-61.058385h122.752795l15.900622 61.058385z m28.621118 111.304348h-211.796274l15.900621-61.058385h180.631056l15.264597 61.058385z" fill="#FFFCF3" p-id="2809"></path><path d="M1880.483776 704.079503c-0.636025-21.624845-2.544099-41.97764-5.088198-61.058385h41.977639l10.812423 41.97764 5.088199 18.44472h-52.790063z m-5.088198 111.304348c2.544099-20.98882 4.452174-41.341615 5.088198-61.058385h65.510559l5.088199 20.352795 10.176398 40.70559h-85.863354z" fill="#E6E3DA" p-id="2810"></path><path d="M1676.955826 938.772671h357.445963v-51.518013h-357.445963z" fill="#FF4C4C" p-id="2811"></path><path d="M2034.401789 887.254658v51.518013h-162.186336c-2.544099-17.808696-18.44472-31.165217-36.889441-31.165218h-158.370186v-20.352795h357.445963z" fill="#E64545" p-id="2812"></path><path d="M496.309267 887.254658h-249.957764l19.080745-71.870807 15.264597-60.42236 13.356521-50.881988 15.900622-61.058385 38.16149-147.557764h45.793789l38.797516 147.557764 15.900621 61.058385 12.720497 50.881988 15.900621 60.42236z" fill="#FF4C4C" p-id="2813"></path><path d="M354.475727 727.612422c-12.720497 63.602484-32.437267 113.212422-43.885715 111.304348-12.084472-2.544099-12.084472-55.970186 0.636025-119.572671s32.437267-113.212422 43.885715-111.304347c12.084472 2.544099 11.448447 55.970186-0.636025 119.57267" fill="#FF6666" p-id="2814"></path><path d="M378.644671 887.254658c53.426087-239.781366-30.529193-391.791304-30.529193-391.791304h45.793789l38.161491 147.557764 15.900621 61.058385 13.356522 50.881988 15.900621 61.058385 18.44472 71.870807h-117.028571z" fill="#E64545" p-id="2815"></path><path d="M448.607404 704.079503h-154.554038l15.900622-61.058385h122.752795l15.900621 61.058385z m28.621118 111.304348h-211.796274l15.900622-61.058385h180.631055l15.264597 61.058385z" fill="#FFFCF3" p-id="2816"></path><path d="M395.817342 704.079503c-0.636025-21.624845-2.544099-41.97764-5.088199-61.058385h41.97764l10.812422 41.97764 5.088199 18.44472h-52.790062z m-5.088199 111.304348c2.544099-20.98882 4.452174-41.341615 5.088199-61.058385h65.510559l5.088198 20.352795 10.176398 40.70559h-85.863354z" fill="#E6E3DA" p-id="2817"></path><path d="M192.289391 938.772671h357.445963v-51.518013h-357.445963z" fill="#FF4C4C" p-id="2818"></path><path d="M549.735354 887.254658v51.518013h-162.186335c-2.544099-17.808696-18.44472-31.165217-36.889441-31.165218h-158.370187v-20.352795h357.445963z" fill="#E64545" p-id="2819"></path><path d="M1004.28323 414.688199V387.975155h-57.242236v-14.628571l57.242236-80.139131h22.260869v80.139131h15.264597V387.975155h-15.264597v26.713044h-22.260869z m0-90.315528l-34.981367 48.337888h34.981367V324.372671z m94.131677 75.686956c12.084472 0 21.624845-10.176398 20.98882-46.429813 0-34.981366-7.632298-47.701863-21.624845-47.701864-13.356522 0-22.26087 12.084472-22.26087 47.701864 0.636025 34.981366 10.176398 46.429814 22.896895 46.429813z m0 16.536646c-26.713043 0-45.793789-18.44472-45.793789-62.966459 0-40.70559 17.172671-63.602484 45.793789-63.602485 29.893168 0 45.157764 22.896894 45.157764 63.602485 0 43.249689-15.264596 62.96646-45.157764 62.966459z m114.484472-1.908074V387.975155h-57.242236v-14.628571l57.242236-80.139131h22.260869v80.139131h15.264597V387.975155h-15.264597v26.713044h-22.260869z m0-90.315528l-34.981367 48.337888h34.981367V324.372671z" fill="#26304D" p-id="2820"></path></svg>