<?xml version="1.0" standalone="no"?><!DOCTYPE svg PUBLIC "-//W3C//DTD SVG 1.1//EN" "http://www.w3.org/Graphics/SVG/1.1/DTD/svg11.dtd"><svg t="1554382904421" class="icon" style="" viewBox="0 0 1024 1024" version="1.1" xmlns="http://www.w3.org/2000/svg" p-id="2960" xmlns:xlink="http://www.w3.org/1999/xlink" width="64" height="64"><defs><style type="text/css"></style></defs><path d="M580 854.2h351.9c15.2-1.9 27.2-13.9 29.1-29.1 0.1-1.1 0.1-2.2 0-3.4V201.5c-0.2-16.9-13-30.9-29.8-32.7H580v685.4z" fill="#8CC152" p-id="2961"></path><path d="M744.8 261.8h143.5c2.5 0 4.5 2 4.5 4.5v58.3c0 2.5-2 4.5-4.5 4.5H744.8c-2.5 0-4.5-2-4.5-4.5v-58.3c0-2.5 2-4.5 4.5-4.5zM744.8 369.6h143.5c2.5 0 4.5 2 4.5 4.5v58.3c0 2.5-2 4.5-4.5 4.5H744.8c-2.5 0-4.5-2-4.5-4.5v-58.3c0-2.5 2-4.5 4.5-4.5zM744.8 477.6h143.5c2.5 0 4.5 2 4.5 4.5v58.3c0 2.5-2 4.5-4.5 4.5H744.8c-2.5 0-4.5-2-4.5-4.5v-58.3c0-2.5 2-4.5 4.5-4.5zM744.8 585.7h143.5c2.5 0 4.5 2 4.5 4.5v58.3c0 2.5-2 4.5-4.5 4.5H744.8c-2.5 0-4.5-2-4.5-4.5v-58.3c0-2.5 2-4.5 4.5-4.5zM744.8 693.7h143.5c2.5 0 4.5 2 4.5 4.5v58.3c0 2.5-2 4.5-4.5 4.5H744.8c-2.5 0-4.5-2-4.5-4.5v-58.3c0-2.5 2-4.5 4.5-4.5zM555.1 261.8h143.5c2.5 0 4.5 2 4.5 4.5v58.3c0 2.5-2 4.5-4.5 4.5H555.1c-2.5 0-4.5-2-4.5-4.5v-58.3c0.1-2.5 2.1-4.5 4.5-4.5zM555.1 369.6h143.5c2.5 0 4.5 2 4.5 4.5v58.3c0 2.5-2 4.5-4.5 4.5H555.1c-2.5 0-4.5-2-4.5-4.5v-58.3c0.1-2.5 2.1-4.5 4.5-4.5zM555.1 477.6h143.5c2.5 0 4.5 2 4.5 4.5v58.3c0 2.5-2 4.5-4.5 4.5H555.1c-2.5 0-4.5-2-4.5-4.5v-58.3c0.1-2.5 2.1-4.5 4.5-4.5zM555.1 585.7h143.5c2.5 0 4.5 2 4.5 4.5v58.3c0 2.5-2 4.5-4.5 4.5H555.1c-2.5 0-4.5-2-4.5-4.5v-58.3c0.1-2.5 2.1-4.5 4.5-4.5zM555.1 693.7h143.5c2.5 0 4.5 2 4.5 4.5v58.3c0 2.5-2 4.5-4.5 4.5H555.1c-2.5 0-4.5-2-4.5-4.5v-58.3c0.1-2.5 2.1-4.5 4.5-4.5z" fill="#FFFFFF" p-id="2962"></path><path d="M555.6 64.3c-2-0.2-4-0.2-6.1 0-2.7-0.4-5.5-0.4-8.3 0L404.5 89.6 90.7 147.2c-3.3 0.6-6.5 1.8-9.4 3.4-8.3 4.1-14.4 11.6-16.6 20.6-0.4 2.7-0.5 5.5-0.2 8.3v659.7c-0.1 1-0.1 1.9 0 2.9 0.5 6 2.6 11.7 6.1 16.6l2.9 3.4c0.5 0.6 1 1.1 1.6 1.6 1.5 1.6 3.2 2.9 5.2 4l4 2.2c2.3 1.1 4.7 1.8 7.2 2.2l242.1 46.6 207.3 40.8h7.4c16.6-0.7 30.2-13.5 31.8-30 0.1-1.1 0.1-2.2 0-3.4V96.8c0.1-15.2-9.9-28.5-24.5-32.5z m-128 620.2l-69-4c-5.6 0-6.7-3.8-8.1-7.6-14.1-36.3-27.8-72.9-41.7-109.2 0-2.5-2.2-4.9-3.8-9-7.8 18.6-15.2 36.1-22.4 53.1l-25.3 60.3c-1.1 4-5.1 6.6-9.2 5.8-17.7-1.3-35.4-2.5-53.1-2.9-7.4 0-8.1-1.8-4.9-8.3 24-47.3 47.5-95 71.5-142.1 3.6-6.1 3.6-13.6 0-19.7-22.4-47.1-43.5-91.9-65.9-139-4.5-9-1.8-10.5 20.2-11.7l35.4-2.5c8.3 0 9.9 0 11.7 6.1 13.2 35 26.7 70.2 40.1 105.1 0 2.2 2 4.5 3.1 7.6 15.2-35 32.7-76 46.6-110.3 6.3-15.5 8.1-16.1 22.4-16.4s33.4 0 44.8-1.8c2.2 0 4.5 0 5.8 1.6 1.3 1.6 0 3.8 0 5.8-24.9 50.7-49.5 101.8-74.9 152.4-3.6 6.4-3.6 14.2 0 20.6 23.8 47.7 69.5 142.1 79.1 162.1 0.8 1.1 0.5 2.7-0.7 3.4-0.4 0.6-1.1 0.7-1.7 0.6z" fill="#8CC152" p-id="2963"></path></svg>