<?xml version="1.0" standalone="no"?><!DOCTYPE svg PUBLIC "-//W3C//DTD SVG 1.1//EN" "http://www.w3.org/Graphics/SVG/1.1/DTD/svg11.dtd"><svg t="1554382971672" class="icon" style="" viewBox="0 0 1040 1024" version="1.1" xmlns="http://www.w3.org/2000/svg" p-id="3422" xmlns:xlink="http://www.w3.org/1999/xlink" width="65" height="64"><defs><style type="text/css"></style></defs><path d="M823.534392 583.336861c0.722399 3.250794 0 6.501587-2.167196 9.029982-35.036332 66.099471-80.547443 123.891358-141.228924 168.318871-6.862787 5.05679-14.086772 9.029982-20.949559 13.725573-3.250794 2.528395-8.307584 2.167196-10.835979-1.083597-17.337566-15.17037-35.036332-29.618342-52.373898-44.788713-5.05679-4.334392-7.946384-4.695591-13.003175 0.722399-18.782363 20.58836-38.287125 40.454321-57.069488 60.681481-3.250794 3.973192-8.307584 5.779189-13.364374 4.695591-42.260317-5.05679-83.075838-16.253968-121.724162-33.591534-32.869136-13.725573-62.126279-35.036332-85.604233-61.76508-1.805996-2.167196-3.250794-4.334392-5.05679-6.862786l-2.167196-4.334392c9.391182 0.361199 19.143563 1.805996 28.534744 3.250794 2.889594 1.083598 5.779189 0.722399 8.668783-0.722399 2.528395-1.444797 4.695591-3.611993 5.41799-6.501587 2.889594-6.862787 4.334392-14.086772 4.334391-21.671958v-216.358377c0-20.949559-11.558377-30.340741-32.146737-26.728748-13.364374 2.889594-25.64515 9.391182-35.75873 18.421164-25.64515 21.310758-48.400705 45.87231-68.266667 73.323457-16.976367 22.033157-31.785538 45.87231-44.066314 70.795061-0.722399 1.444797-1.083598 3.973192-3.250793 3.611993-2.167196-0.361199-2.167196-3.250794-2.528395-5.05679-1.444797-13.364374-0.722399-26.728748 1.805996-39.731922 7.585185-49.123104 29.257143-95.356614 61.765079-132.92134C267.287478 356.864903 314.604586 307.741799 372.035273 270.177072c23.839153-15.53157 49.123104-28.534744 75.490653-38.287125 9.029982-3.611993 17.698765-7.585185 26.367548-12.280776 3.250794-2.528395 7.585185-3.611993 11.558378-2.889594-9.029982 7.223986-17.337566 13.364374-24.922751 20.58836-27.089947 25.283951-41.17672 54.902293-32.869136 92.467019 1.444797 11.197178 9.752381 20.58836 20.949559 23.477954 3.611993 1.083598 6.862787 1.805996 9.391181-2.167196 0.722399-1.444797 2.167196-2.528395 3.973193-2.167195 1.805996 0.361199 2.167196 2.528395 2.167195 4.334391v273.789065c0 22.394356 16.253968 38.648325 39.009524 41.537919 21.310758 2.889594 37.203527-7.585185 53.818695-17.337566 11.919577-5.779189 18.782363-18.421164 17.337566-31.785538-1.083598-70.795062-0.722399-141.951323-0.361199-212.746384 1.083598-26.728748-10.47478-52.373898-31.063139-68.989066-0.722399-0.361199-1.083598-1.083598-1.444797-1.805996-0.361199-0.722399-0.722399-1.444797-0.722399-2.167196 19.504762-1.444797 37.925926-0.722399 54.541093 10.47478 4.695591 2.889594 6.501587 0.361199 9.029983-2.167196 20.22716-20.22716 42.982716-37.564727 67.905467-52.012698 26.367549-15.53157 54.541093-27.451146 84.159436-36.11993 5.417989-1.444797 10.835979-3.611993 15.531569-6.501587 2.167196-1.444797 5.417989-4.334392 7.585186-2.167196 2.167196 2.167196-1.444797 5.05679-2.889595 6.862787-16.615168 20.22716-33.230335 40.81552-48.761905 61.765079-9.391182 12.641975-18.421164 25.64515-26.728747 39.009524-3.250794 5.05679-4.695591 10.835979-4.695591 16.615167-1.805996 78.741446-0.361199 157.482892 0 236.224339 0 8.668783 1.083598 17.337566 1.083598 26.006349 0 4.334392 2.167196 7.946384 5.779188 10.11358 11.558377 7.585185 25.64515 9.391182 39.009524 5.41799 28.534744-10.47478 53.096296-28.534744 71.87866-52.373898 2.889594-3.973192 4.695591-8.668783 9.391182-11.558377z m0 0" p-id="3423" fill="#1296db"></path><path d="M968.736508 343.500529c-23.116755-64.293474-59.597884-123.168959-107.276191-171.930864-29.979541-31.063139-64.293474-57.430688-101.858201-79.102646-64.293474-37.564727-136.894533-59.236684-211.301587-63.209876-41.537919-2.889594-83.437037 1.083598-123.891358 11.197178-58.153086 15.53157-113.777778 36.119929-163.98448 69.350265-45.87231 29.618342-86.687831 66.46067-120.640564 109.443386-65.015873 84.159436-95.356614 180.238448-96.801411 265.120282 0 83.437037 11.919577 142.673721 35.397531 200.104409 29.618342 73.323457 76.93545 137.978131 137.97813 187.823633 165.429277 136.533333 402.014815 145.924515 577.918872 22.394357 175.542857-123.530159 247.060317-349.279718 174.459259-551.190124z m-99.691005 382.148854c-17.698765 27.812346-36.481129 55.263492-60.681482 78.380247-57.069489 53.457496-123.168959 90.299824-200.104409 103.664197-37.203527 6.862787-74.768254 8.668783-112.332981 5.779189-57.430688-4.334392-113.416578-20.22716-164.345679-46.594709-121.001764-63.932275-202.632804-183.128042-218.164374-318.938977-7.946384-66.821869 1.083598-134.727337 26.367549-197.214815 83.798236-211.662787 322.912169-315.326984 534.574956-231.528748 47.317108 18.782363 91.022222 46.23351 128.586949 81.269841 48.400705 44.427513 85.243034 100.052205 107.27619 161.817284 13.003175 35.397531 20.949559 72.601058 23.477954 110.165785 0.722399 10.11358 1.444797 20.22716 1.444798 30.70194-0.722399 78.380247-23.477954 155.676896-66.099471 222.498766z" p-id="3424" fill="#1296db"></path></svg>